<svg width="24" height="24" viewBox="0 0 24 24" fill="none" xmlns="http://www.w3.org/2000/svg">
<path fill-rule="evenodd" clip-rule="evenodd" d="M19 4C19.5523 4 20 4.44772 20 5V15C20 15.5523 19.5523 16 19 16H16V19C16 19.5523 15.5523 20 15 20H5C4.44772 20 4 19.5523 4 19V9C4 8.44772 4.44772 8 5 8H8V5C8 4.44772 8.44772 4 9 4H19ZM9 8H15C15.0321 8 15.0638 8.00151 15.095 8.00446C15.5642 8.04869 15.9391 8.41712 15.9933 8.88338C15.9977 8.92164 16 8.96055 16 9L16 15H19V5H9V8ZM8 9H5V19H15L15 16V9H8Z" fill="#6B7682"/>
<mask id="mask0" mask-type="alpha" maskUnits="userSpaceOnUse" x="4" y="4" width="16" height="16">
<path fill-rule="evenodd" clip-rule="evenodd" d="M19 4C19.5523 4 20 4.44772 20 5V15C20 15.5523 19.5523 16 19 16H16V19C16 19.5523 15.5523 20 15 20H5C4.44772 20 4 19.5523 4 19V9C4 8.44772 4.44772 8 5 8H8V5C8 4.44772 8.44772 4 9 4H19ZM9 8H15C15.0321 8 15.0638 8.00151 15.095 8.00446C15.5642 8.04869 15.9391 8.41712 15.9933 8.88338C15.9977 8.92164 16 8.96055 16 9L16 15H19V5H9V8ZM8 9H5V19H15L15 16V9H8Z" fill="white"/>
</mask>
<g mask="url(#mask0)">
</g>
</svg>
